<?xml version="1.0" encoding="UTF-8" standalone="no"?><svg xmlns="http://www.w3.org/2000/svg" xmlns:xlink="http://www.w3.org/1999/xlink" contentScriptType="application/ecmascript" contentStyleType="text/css" height="385px" preserveAspectRatio="none" style="width:961px;height:385px;" version="1.1" viewBox="0 0 961 385" width="961px" zoomAndPan="magnify"><defs><filter height="300%" id="f1eiybnt8j45j1" width="300%" x="-1" y="-1"><feGaussianBlur result="blurOut" stdDeviation="2.0"/><feColorMatrix in="blurOut" result="blurOut2" type="matrix" values="0 0 0 0 0 0 0 0 0 0 0 0 0 0 0 0 0 0 .4 0"/><feOffset dx="4.0" dy="4.0" in="blurOut2" result="blurOut3"/><feBlend in="SourceGraphic" in2="blurOut3" mode="normal"/></filter></defs><g><!--cluster de.gematik.ti.openhealthcard.common--><polygon fill="#FFFFFF" filter="url(#f1eiybnt8j45j1)" points="366,148,640,148,647,171.6094,939,171.6094,939,373,366,373,366,148" style="stroke: #000000; stroke-width: 1.5;"/><line style="stroke: #000000; stroke-width: 1.5;" x1="366" x2="647" y1="171.6094" y2="171.6094"/><text fill="#000000" font-family="sans-serif" font-size="14" font-weight="bold" lengthAdjust="spacingAndGlyphs" textLength="268" x="370" y="164.5332">de.gematik.ti.openhealthcard.common</text><!--cluster de.gematik.ti.openhealthcard.common.interfaces--><polygon fill="#FFFFFF" filter="url(#f1eiybnt8j45j1)" points="22,24,371,24,378,47.6094,381,47.6094,381,124,22,124,22,24" style="stroke: #000000; stroke-width: 1.5;"/><line style="stroke: #000000; stroke-width: 1.5;" x1="22" x2="378" y1="47.6094" y2="47.6094"/><text fill="#000000" font-family="sans-serif" font-size="14" font-weight="bold" lengthAdjust="spacingAndGlyphs" textLength="343" x="26" y="40.5332">de.gematik.ti.openhealthcard.common.interfaces</text><!--cluster de.gematik.ti.cardreader.provider.api--><polygon fill="#FFFFFF" filter="url(#f1eiybnt8j45j1)" points="405,24,673,24,680,47.6094,683,47.6094,683,124,405,124,405,24" style="stroke: #000000; stroke-width: 1.5;"/><line style="stroke: #000000; stroke-width: 1.5;" x1="405" x2="680" y1="47.6094" y2="47.6094"/><text fill="#000000" font-family="sans-serif" font-size="14" font-weight="bold" lengthAdjust="spacingAndGlyphs" textLength="262" x="409" y="40.5332">de.gematik.ti.cardreader.provider.api</text><!--cluster android.content--><polygon fill="#FFFFFF" filter="url(#f1eiybnt8j45j1)" points="715,24,833,24,840,47.6094,883,47.6094,883,124,715,124,715,24" style="stroke: #000000; stroke-width: 1.5;"/><line style="stroke: #000000; stroke-width: 1.5;" x1="715" x2="840" y1="47.6094" y2="47.6094"/><text fill="#000000" font-family="sans-serif" font-size="14" font-weight="bold" lengthAdjust="spacingAndGlyphs" textLength="112" x="719" y="40.5332">android.content</text><!--class de.gematik.ti.openhealthcard.common.AbstractAndroidCardReaderController--><rect fill="#FEFECE" filter="url(#f1eiybnt8j45j1)" height="172.5234" id="de.gematik.ti.openhealthcard.common.AbstractAndroidCardReaderController" style="stroke: #A80036; stroke-width: 1.5;" width="258" x="382" y="184"/><ellipse cx="404.2" cy="200" fill="#A9DCDF" rx="11" ry="11" style="stroke: #A80036; stroke-width: 1.0;"/><path d="M405.95,201.5 L402.6531,201.5 L402.2156,202.5 L402.2156,202.5 L402.6844,202.5 L403.2,203.125 L403.2,203.5 L403.2,203.875 L402.6844,204.5 L402.2156,204.5 L400.325,204.5 L399.7156,204.5 L399.2,203.875 L399.2,203.5 L399.2,203.125 L399.7156,202.5 L400.325,202.5 L402.6375,196.5 L401.7625,196.5 L400.7156,196.5 L400.2,195.875 L400.2,195.5 L400.2,195.125 L400.7156,194.5 L401.7625,194.5 L405.4344,194.5 L408.1219,202.5 L408.6844,202.5 L408.6844,202.5 L409.2,203.125 L409.2,203.5 L409.2,203.875 L408.6844,204.5 L408.1219,204.5 L406.2313,204.5 L405.7156,204.5 L405.2,203.875 L405.2,203.5 L405.2,203.125 L405.7156,202.5 L406.2313,202.5 L406.2313,202.5 L405.95,201.5 Z M405.4031,199.5 L404.2,195.9219 L403.1688,199.5 L405.4031,199.5 Z "/><text fill="#000000" font-family="sans-serif" font-size="12" font-style="italic" lengthAdjust="spacingAndGlyphs" textLength="210" x="419.8" y="204.9102">AbstractAndroidCardReaderController</text><line style="stroke: #A80036; stroke-width: 1.5;" x1="383" x2="639" y1="216" y2="216"/><rect fill="none" height="6" style="stroke: #C82930; stroke-width: 1.0;" width="6" x="390" y="225.418"/><text fill="#000000" font-family="sans-serif" font-size="11" lengthAdjust="spacingAndGlyphs" text-decoration="underline" textLength="65" x="402" y="231.4189">LOG : Logger</text><rect fill="none" height="6" style="stroke: #C82930; stroke-width: 1.0;" width="6" x="390" y="239.2539"/><text fill="#000000" font-family="sans-serif" font-size="11" lengthAdjust="spacingAndGlyphs" text-decoration="underline" textLength="232" x="402" y="245.2549">MAX_SECONDS_WAIT_FOR_PERMISSION : long</text><rect fill="none" height="6" style="stroke: #C82930; stroke-width: 1.0;" width="6" x="390" y="253.0898"/><text fill="#000000" font-family="sans-serif" font-size="11" lengthAdjust="spacingAndGlyphs" textLength="82" x="402" y="259.0908">context : Context</text><rect fill="none" height="6" style="stroke: #C82930; stroke-width: 1.0;" width="6" x="390" y="266.9258"/><text fill="#000000" font-family="sans-serif" font-size="11" lengthAdjust="spacingAndGlyphs" textLength="189" x="402" y="272.9268">permissionWaitingLock : ReentrantLock</text><line style="stroke: #A80036; stroke-width: 1.5;" x1="383" x2="639" y1="279.3438" y2="279.3438"/><ellipse cx="393" cy="291.7617" fill="#84BE84" rx="3" ry="3" style="stroke: #038048; stroke-width: 1.0;"/><text fill="#000000" font-family="sans-serif" font-size="11" lengthAdjust="spacingAndGlyphs" textLength="60" x="402" y="294.7627">setContext()</text><ellipse cx="393" cy="305.5977" fill="#84BE84" rx="3" ry="3" style="stroke: #038048; stroke-width: 1.0;"/><text fill="#000000" font-family="sans-serif" font-size="11" lengthAdjust="spacingAndGlyphs" textLength="97" x="402" y="308.5986">waitForPermission()</text><polygon fill="#FFFF44" points="393,314.4336,397,318.4336,393,322.4336,389,318.4336" style="stroke: #B38D22; stroke-width: 1.0;"/><text fill="#000000" font-family="sans-serif" font-size="11" lengthAdjust="spacingAndGlyphs" textLength="74" x="402" y="322.4346">checkContext()</text><polygon fill="#FFFF44" points="393,328.2695,397,332.2695,393,336.2695,389,332.2695" style="stroke: #B38D22; stroke-width: 1.0;"/><text fill="#000000" font-family="sans-serif" font-size="11" lengthAdjust="spacingAndGlyphs" textLength="60" x="402" y="336.2705">getContext()</text><rect fill="#F24D5C" height="6" style="stroke: #C82930; stroke-width: 1.0;" width="6" x="390" y="344.1055"/><text fill="#000000" font-family="sans-serif" font-size="11" lengthAdjust="spacingAndGlyphs" textLength="138" x="402" y="350.1064">requestPermissionAndWait()</text><!--class de.gematik.ti.openhealthcard.common.WaitingPermissionReceiver--><rect fill="#FEFECE" filter="url(#f1eiybnt8j45j1)" height="172.5234" id="de.gematik.ti.openhealthcard.common.WaitingPermissionReceiver" style="stroke: #A80036; stroke-width: 1.5;" width="247" x="675.5" y="184"/><ellipse cx="718.4" cy="200" fill="#ADD1B2" rx="11" ry="11" style="stroke: #A80036; stroke-width: 1.0;"/><path d="M720.4,196.5 Q720.6031,196 720.8375,195.75 Q721.0719,195.5 721.3375,195.5 Q721.8063,195.5 722.1031,195.7813 Q722.4,196.0625 722.4,196.7188 L722.4,198.2813 Q722.4,198.9375 722.1188,199.2188 Q721.8375,199.5 721.4,199.5 Q721.0094,199.5 720.7594,199.3281 Q720.5094,199.1563 720.4,198.7031 Q720.3531,198.3906 720.1813,198.2188 Q719.8688,197.8906 719.3063,197.6953 Q718.7438,197.5 718.1813,197.5 Q717.4781,197.5 716.8922,197.7813 Q716.3063,198.0625 715.8531,198.6875 Q715.4,199.3125 715.4,200.1719 L715.4,201.0938 Q715.4,202.125 716.2438,202.8125 Q717.0875,203.5 718.5875,203.5 Q719.4781,203.5 720.1031,203.2969 Q720.4625,203.1875 720.8688,202.8281 Q721.1344,202.625 721.275,202.5625 Q721.4156,202.5 721.5875,202.5 Q721.9156,202.5 722.1578,202.7578 Q722.4,203.0156 722.4,203.375 Q722.4,203.7188 722.0563,204.125 Q721.5563,204.7188 720.7594,205.0469 Q719.7125,205.5 718.4313,205.5 Q716.9313,205.5 715.7281,204.9063 Q714.7594,204.4375 714.0797,203.4219 Q713.4,202.4063 713.4,201.2031 L713.4,200.1094 Q713.4,198.8594 714.0016,197.7656 Q714.6031,196.6719 715.6578,196.0859 Q716.7125,195.5 717.9,195.5 Q718.6188,195.5 719.2438,195.75 Q719.8688,196 720.4,196.5 Z "/><text fill="#000000" font-family="sans-serif" font-size="12" lengthAdjust="spacingAndGlyphs" textLength="153" x="738.6" y="204.9102">WaitingPermissionReceiver</text><line style="stroke: #A80036; stroke-width: 1.5;" x1="676.5" x2="921.5" y1="216" y2="216"/><rect fill="none" height="6" style="stroke: #C82930; stroke-width: 1.0;" width="6" x="683.5" y="225.418"/><text fill="#000000" font-family="sans-serif" font-size="11" lengthAdjust="spacingAndGlyphs" text-decoration="underline" textLength="65" x="695.5" y="231.4189">LOG : Logger</text><rect fill="none" height="6" style="stroke: #C82930; stroke-width: 1.0;" width="6" x="683.5" y="239.2539"/><text fill="#000000" font-family="sans-serif" font-size="11" lengthAdjust="spacingAndGlyphs" textLength="82" x="695.5" y="245.2549">context : Context</text><rect fill="none" height="6" style="stroke: #C82930; stroke-width: 1.0;" width="6" x="683.5" y="253.0898"/><text fill="#000000" font-family="sans-serif" font-size="11" lengthAdjust="spacingAndGlyphs" textLength="89" x="695.5" y="259.0908">permission : String</text><rect fill="none" height="6" style="stroke: #C82930; stroke-width: 1.0;" width="6" x="683.5" y="266.9258"/><text fill="#000000" font-family="sans-serif" font-size="11" lengthAdjust="spacingAndGlyphs" textLength="221" x="695.5" y="272.9268">receivedResult : CompletableFuture&lt;Boolean&gt;</text><line style="stroke: #A80036; stroke-width: 1.5;" x1="676.5" x2="921.5" y1="279.3438" y2="279.3438"/><ellipse cx="686.5" cy="291.7617" fill="#84BE84" rx="3" ry="3" style="stroke: #038048; stroke-width: 1.0;"/><text fill="#000000" font-family="sans-serif" font-size="11" lengthAdjust="spacingAndGlyphs" textLength="59" x="695.5" y="294.7627">onReceive()</text><polygon fill="#FFFF44" points="686.5,300.5977,690.5,304.5977,686.5,308.5977,682.5,304.5977" style="stroke: #B38D22; stroke-width: 1.0;"/><text fill="#000000" font-family="sans-serif" font-size="11" lengthAdjust="spacingAndGlyphs" textLength="138" x="695.5" y="308.5986">WaitingPermissionReceiver()</text><polygon fill="#4177AF" points="686.5,315.4336,682.5,321.4336,690.5,321.4336" style="stroke: #1963A0; stroke-width: 1.0;"/><text fill="#000000" font-family="sans-serif" font-size="11" lengthAdjust="spacingAndGlyphs" textLength="23" x="695.5" y="322.4346">get()</text><rect fill="#F24D5C" height="6" style="stroke: #C82930; stroke-width: 1.0;" width="6" x="683.5" y="330.2695"/><text fill="#000000" font-family="sans-serif" font-size="11" lengthAdjust="spacingAndGlyphs" textLength="140" x="695.5" y="336.2705">registerPermissionReceiver()</text><rect fill="#F24D5C" height="6" style="stroke: #C82930; stroke-width: 1.0;" width="6" x="683.5" y="344.1055"/><text fill="#000000" font-family="sans-serif" font-size="11" lengthAdjust="spacingAndGlyphs" textLength="152" x="695.5" y="350.1064">unregisterPermissionReceiver()</text><!--class de.gematik.ti.openhealthcard.common.interfaces.IAndroidCardReaderController--><rect fill="#FEFECE" filter="url(#f1eiybnt8j45j1)" height="48" id="de.gematik.ti.openhealthcard.common.interfaces.IAndroidCardReaderController" style="stroke: #A80036; stroke-width: 1.5;" width="199" x="165.5" y="60"/><ellipse cx="180.5" cy="76" fill="#ADD1B2" rx="11" ry="11" style="stroke: #A80036; stroke-width: 1.0;"/><path d="M182.5,72.5 Q182.7031,72 182.9375,71.75 Q183.1719,71.5 183.4375,71.5 Q183.9063,71.5 184.2031,71.7813 Q184.5,72.0625 184.5,72.7188 L184.5,74.2813 Q184.5,74.9375 184.2188,75.2188 Q183.9375,75.5 183.5,75.5 Q183.1094,75.5 182.8594,75.3281 Q182.6094,75.1563 182.5,74.7031 Q182.4531,74.3906 182.2813,74.2188 Q181.9688,73.8906 181.4063,73.6953 Q180.8438,73.5 180.2813,73.5 Q179.5781,73.5 178.9922,73.7813 Q178.4063,74.0625 177.9531,74.6875 Q177.5,75.3125 177.5,76.1719 L177.5,77.0938 Q177.5,78.125 178.3438,78.8125 Q179.1875,79.5 180.6875,79.5 Q181.5781,79.5 182.2031,79.2969 Q182.5625,79.1875 182.9688,78.8281 Q183.2344,78.625 183.375,78.5625 Q183.5156,78.5 183.6875,78.5 Q184.0156,78.5 184.2578,78.7578 Q184.5,79.0156 184.5,79.375 Q184.5,79.7188 184.1563,80.125 Q183.6563,80.7188 182.8594,81.0469 Q181.8125,81.5 180.5313,81.5 Q179.0313,81.5 177.8281,80.9063 Q176.8594,80.4375 176.1797,79.4219 Q175.5,78.4063 175.5,77.2031 L175.5,76.1094 Q175.5,74.8594 176.1016,73.7656 Q176.7031,72.6719 177.7578,72.0859 Q178.8125,71.5 180,71.5 Q180.7188,71.5 181.3438,71.75 Q181.9688,72 182.5,72.5 Z "/><text fill="#000000" font-family="sans-serif" font-size="12" lengthAdjust="spacingAndGlyphs" textLength="167" x="194.5" y="80.9102">IAndroidCardReaderController</text><line style="stroke: #A80036; stroke-width: 1.5;" x1="166.5" x2="363.5" y1="92" y2="92"/><line style="stroke: #A80036; stroke-width: 1.5;" x1="166.5" x2="363.5" y1="100" y2="100"/><!--class de.gematik.ti.cardreader.provider.api.AbstractCardReaderController--><rect fill="#FEFECE" filter="url(#f1eiybnt8j45j1)" height="48" id="de.gematik.ti.cardreader.provider.api.AbstractCardReaderController" style="stroke: #A80036; stroke-width: 1.5;" width="198" x="421" y="60"/><ellipse cx="436" cy="76" fill="#ADD1B2" rx="11" ry="11" style="stroke: #A80036; stroke-width: 1.0;"/><path d="M438,72.5 Q438.2031,72 438.4375,71.75 Q438.6719,71.5 438.9375,71.5 Q439.4063,71.5 439.7031,71.7813 Q440,72.0625 440,72.7188 L440,74.2813 Q440,74.9375 439.7188,75.2188 Q439.4375,75.5 439,75.5 Q438.6094,75.5 438.3594,75.3281 Q438.1094,75.1563 438,74.7031 Q437.9531,74.3906 437.7813,74.2188 Q437.4688,73.8906 436.9063,73.6953 Q436.3438,73.5 435.7813,73.5 Q435.0781,73.5 434.4922,73.7813 Q433.9063,74.0625 433.4531,74.6875 Q433,75.3125 433,76.1719 L433,77.0938 Q433,78.125 433.8438,78.8125 Q434.6875,79.5 436.1875,79.5 Q437.0781,79.5 437.7031,79.2969 Q438.0625,79.1875 438.4688,78.8281 Q438.7344,78.625 438.875,78.5625 Q439.0156,78.5 439.1875,78.5 Q439.5156,78.5 439.7578,78.7578 Q440,79.0156 440,79.375 Q440,79.7188 439.6563,80.125 Q439.1563,80.7188 438.3594,81.0469 Q437.3125,81.5 436.0313,81.5 Q434.5313,81.5 433.3281,80.9063 Q432.3594,80.4375 431.6797,79.4219 Q431,78.4063 431,77.2031 L431,76.1094 Q431,74.8594 431.6016,73.7656 Q432.2031,72.6719 433.2578,72.0859 Q434.3125,71.5 435.5,71.5 Q436.2188,71.5 436.8438,71.75 Q437.4688,72 438,72.5 Z "/><text fill="#000000" font-family="sans-serif" font-size="12" lengthAdjust="spacingAndGlyphs" textLength="166" x="450" y="80.9102">AbstractCardReaderController</text><line style="stroke: #A80036; stroke-width: 1.5;" x1="422" x2="618" y1="92" y2="92"/><line style="stroke: #A80036; stroke-width: 1.5;" x1="422" x2="618" y1="100" y2="100"/><!--class android.content.BroadcastReceiver--><rect fill="#FEFECE" filter="url(#f1eiybnt8j45j1)" height="48" id="android.content.BroadcastReceiver" style="stroke: #A80036; stroke-width: 1.5;" width="136" x="731" y="60"/><ellipse cx="746" cy="76" fill="#ADD1B2" rx="11" ry="11" style="stroke: #A80036; stroke-width: 1.0;"/><path d="M748,72.5 Q748.2031,72 748.4375,71.75 Q748.6719,71.5 748.9375,71.5 Q749.4063,71.5 749.7031,71.7813 Q750,72.0625 750,72.7188 L750,74.2813 Q750,74.9375 749.7188,75.2188 Q749.4375,75.5 749,75.5 Q748.6094,75.5 748.3594,75.3281 Q748.1094,75.1563 748,74.7031 Q747.9531,74.3906 747.7813,74.2188 Q747.4688,73.8906 746.9063,73.6953 Q746.3438,73.5 745.7813,73.5 Q745.0781,73.5 744.4922,73.7813 Q743.9063,74.0625 743.4531,74.6875 Q743,75.3125 743,76.1719 L743,77.0938 Q743,78.125 743.8438,78.8125 Q744.6875,79.5 746.1875,79.5 Q747.0781,79.5 747.7031,79.2969 Q748.0625,79.1875 748.4688,78.8281 Q748.7344,78.625 748.875,78.5625 Q749.0156,78.5 749.1875,78.5 Q749.5156,78.5 749.7578,78.7578 Q750,79.0156 750,79.375 Q750,79.7188 749.6563,80.125 Q749.1563,80.7188 748.3594,81.0469 Q747.3125,81.5 746.0313,81.5 Q744.5313,81.5 743.3281,80.9063 Q742.3594,80.4375 741.6797,79.4219 Q741,78.4063 741,77.2031 L741,76.1094 Q741,74.8594 741.6016,73.7656 Q742.2031,72.6719 743.2578,72.0859 Q744.3125,71.5 745.5,71.5 Q746.2188,71.5 746.8438,71.75 Q747.4688,72 748,72.5 Z "/><text fill="#000000" font-family="sans-serif" font-size="12" lengthAdjust="spacingAndGlyphs" textLength="104" x="760" y="80.9102">BroadcastReceiver</text><line style="stroke: #A80036; stroke-width: 1.5;" x1="732" x2="866" y1="92" y2="92"/><line style="stroke: #A80036; stroke-width: 1.5;" x1="732" x2="866" y1="100" y2="100"/><!--link de.gematik.ti.openhealthcard.common.interfaces.IAndroidCardReaderController to de.gematik.ti.openhealthcard.common.AbstractAndroidCardReaderController--><path d="M312.16,120.37 C336.349,138.512 366.955,161.467 396.86,183.895 " fill="none" id="de.gematik.ti.openhealthcard.common.interfaces.IAndroidCardReaderController-de.gematik.ti.openhealthcard.common.AbstractAndroidCardReaderController" style="stroke: #A80036; stroke-width: 1.0; stroke-dasharray: 7.0,7.0;"/><polygon fill="none" points="307.956,125.967,296.156,108.367,316.356,114.767,307.956,125.967" style="stroke: #A80036; stroke-width: 1.0;"/><!--link de.gematik.ti.cardreader.provider.api.AbstractCardReaderController to de.gematik.ti.openhealthcard.common.AbstractAndroidCardReaderController--><path d="M517.879,128.489 C517.071,145.05 516.119,164.553 515.186,183.685 " fill="none" id="de.gematik.ti.cardreader.provider.api.AbstractCardReaderController-de.gematik.ti.openhealthcard.common.AbstractAndroidCardReaderController" style="stroke: #A80036; stroke-width: 1.0;"/><polygon fill="none" points="510.894,128.002,518.86,108.367,524.877,128.684,510.894,128.002" style="stroke: #A80036; stroke-width: 1.0;"/><!--link android.content.BroadcastReceiver to de.gematik.ti.openhealthcard.common.WaitingPermissionReceiver--><path d="M799,128.489 C799,145.05 799,164.553 799,183.685 " fill="none" id="android.content.BroadcastReceiver-de.gematik.ti.openhealthcard.common.WaitingPermissionReceiver" style="stroke: #A80036; stroke-width: 1.0;"/><polygon fill="none" points="792,128.367,799,108.367,806,128.367,792,128.367" style="stroke: #A80036; stroke-width: 1.0;"/><!--
@startuml



  namespace de.gematik.ti.openhealthcard.common {
    abstract class de.gematik.ti.openhealthcard.common.AbstractAndroidCardReaderController {
        {static} - LOG : Logger
        {static} - MAX_SECONDS_WAIT_FOR_PERMISSION : long
        - context : Context
        - permissionWaitingLock : ReentrantLock
        + setContext()
        + waitForPermission()
        # checkContext()
        # getContext()
        - requestPermissionAndWait()
    }
  }


  namespace de.gematik.ti.openhealthcard.common {
    class de.gematik.ti.openhealthcard.common.WaitingPermissionReceiver {
        {static} - LOG : Logger
        - context : Context
        - permission : String
        - receivedResult : CompletableFuture<Boolean>
        + onReceive()
        # WaitingPermissionReceiver()
        ~ get()
        - registerPermissionReceiver()
        - unregisterPermissionReceiver()
    }
  }


  de.gematik.ti.openhealthcard.common.AbstractAndroidCardReaderController .up.|> de.gematik.ti.openhealthcard.common.interfaces.IAndroidCardReaderController
  de.gematik.ti.openhealthcard.common.AbstractAndroidCardReaderController -up-|> de.gematik.ti.cardreader.provider.api.AbstractCardReaderController
  de.gematik.ti.openhealthcard.common.WaitingPermissionReceiver -up-|> android.content.BroadcastReceiver









@enduml

PlantUML version 1.2019.06(Fri May 24 19:10:25 CEST 2019)
(APACHE source distribution)
Java Runtime: OpenJDK Runtime Environment
JVM: OpenJDK 64-Bit Server VM
Java Version: 1.8.0_202-release-1483-b03
Operating System: Windows 7
OS Version: 6.1
Default Encoding: Cp1252
Language: de
Country: DE
--></g></svg>