<?xml version="1.0" encoding="UTF-8" standalone="no"?><svg xmlns="http://www.w3.org/2000/svg" xmlns:xlink="http://www.w3.org/1999/xlink" contentScriptType="application/ecmascript" contentStyleType="text/css" height="218px" preserveAspectRatio="none" style="width:328px;height:218px;" version="1.1" viewBox="0 0 328 218" width="328px" zoomAndPan="magnify"><defs><filter height="300%" id="fjhfiavem582i" width="300%" x="-1" y="-1"><feGaussianBlur result="blurOut" stdDeviation="2.0"/><feColorMatrix in="blurOut" result="blurOut2" type="matrix" values="0 0 0 0 0 0 0 0 0 0 0 0 0 0 0 0 0 0 .4 0"/><feOffset dx="4.0" dy="4.0" in="blurOut2" result="blurOut3"/><feBlend in="SourceGraphic" in2="blurOut3" mode="normal"/></filter></defs><g><!--cluster de.gematik.ti.openhealthcard.common--><polygon fill="#FFFFFF" filter="url(#fjhfiavem582i)" points="22,24,296,24,303,47.6094,306,47.6094,306,206,22,206,22,24" style="stroke: #000000; stroke-width: 1.5;"/><line style="stroke: #000000; stroke-width: 1.5;" x1="22" x2="303" y1="47.6094" y2="47.6094"/><text fill="#000000" font-family="sans-serif" font-size="14" font-weight="bold" lengthAdjust="spacingAndGlyphs" textLength="268" x="26" y="40.5332">de.gematik.ti.openhealthcard.common</text><!--cluster de.gematik.ti.openhealthcard.common.interfaces--><polygon fill="#FFFFFF" filter="url(#fjhfiavem582i)" points="47,68,124,68,131,91.6094,281,91.6094,281,182,47,182,47,68" style="stroke: #000000; stroke-width: 1.5;"/><line style="stroke: #000000; stroke-width: 1.5;" x1="47" x2="131" y1="91.6094" y2="91.6094"/><text fill="#000000" font-family="sans-serif" font-size="14" font-weight="bold" lengthAdjust="spacingAndGlyphs" textLength="71" x="51" y="84.5332">interfaces</text><!--class de.gematik.ti.openhealthcard.common.interfaces.IAndroidCardReaderController--><rect fill="#FEFECE" filter="url(#fjhfiavem582i)" height="61.8359" id="de.gematik.ti.openhealthcard.common.interfaces.IAndroidCardReaderController" style="stroke: #A80036; stroke-width: 1.5;" width="201" x="63.5" y="104"/><ellipse cx="78.5" cy="120" fill="#B4A7E5" rx="11" ry="11" style="stroke: #A80036; stroke-width: 1.0;"/><path d="M79.5,117 L79.5,123 L81.5,123 L81.9844,123 L82.5,123.625 L82.5,124 L82.5,124.375 L81.9844,125 L81.5,125 L75.5,125 L75.0156,125 L74.5,124.375 L74.5,124 L74.5,123.625 L75.0156,123 L75.5,123 L77.5,123 L77.5,117 L75.5,117 L75.0156,117 L74.5,116.375 L74.5,116 L74.5,115.625 L75.0156,115 L75.5,115 L81.5,115 L81.9844,115 L82.5,115.625 L82.5,116 L82.5,116.375 L81.9844,117 L81.5,117 L79.5,117 Z "/><text fill="#000000" font-family="sans-serif" font-size="12" font-style="italic" lengthAdjust="spacingAndGlyphs" textLength="169" x="92.5" y="124.9102">IAndroidCardReaderController</text><line style="stroke: #A80036; stroke-width: 1.5;" x1="64.5" x2="263.5" y1="136" y2="136"/><line style="stroke: #A80036; stroke-width: 1.5;" x1="64.5" x2="263.5" y1="144" y2="144"/><ellipse cx="74.5" cy="156.418" fill="#84BE84" rx="3" ry="3" style="stroke: #038048; stroke-width: 1.0;"/><text fill="#000000" font-family="sans-serif" font-size="11" font-style="italic" lengthAdjust="spacingAndGlyphs" textLength="61" x="83.5" y="159.4189">setContext()</text><!--
@startuml



  namespace de.gematik.ti.openhealthcard.common {
    namespace interfaces {
      interface de.gematik.ti.openhealthcard.common.interfaces.IAndroidCardReaderController {
          {abstract} + setContext()
      }
    }
  }











@enduml

PlantUML version 1.2019.06(Fri May 24 19:10:25 CEST 2019)
(APACHE source distribution)
Java Runtime: OpenJDK Runtime Environment
JVM: OpenJDK 64-Bit Server VM
Java Version: 1.8.0_202-release-1483-b03
Operating System: Windows 7
OS Version: 6.1
Default Encoding: Cp1252
Language: de
Country: DE
--></g></svg>